<?xml version="1.0" encoding="UTF-8"?>
<svg id="Layer_1" data-name="Layer 1" xmlns="http://www.w3.org/2000/svg" viewBox="0 0 256 256">
  <rect width="256" height="256" fill="#feffef" stroke-width="0"/>
  <path d="M181.02539,213.21786l7.60881-177.28504c.1136-2.648-2.00246-4.85687-4.65294-4.85687h-19.07145c-1.55878,0-3.01415.77986-3.87757,2.0777L43.09587,210.43863c-2.05906,3.0953.16001,7.23669,3.87757,7.23669h25.31067c1.55878,0,3.01415-.77986,3.87757-2.0777l16.05978-24.14145c.86335-1.29784,2.31879-2.0777,3.87757-2.0777h49.56639c2.64397,0,4.75762,2.19848,4.65354,4.84044l-.73305,18.61597c-.10401,2.64196,2.00964,4.84044,4.65361,4.84044h22.13302c2.49442,0,4.54591-1.96537,4.65287-4.45745ZM151.06944,157.69406c-.10696,2.49214-2.15845,4.45745-4.65287,4.45745h-26.52884c-3.71763,0-5.9367-4.14139-3.87757-7.23669l28.35835-42.62906c.86335-1.29784,2.31879-2.0777,3.87757-2.0777,2.65048,0,4.76654,2.20888,4.65294,4.85687l-1.82958,42.62913Z" fill="#f02902" stroke-width="0"/>
</svg>