<?xml version="1.0" encoding="UTF-8"?>
<svg id="Layer_3" data-name="Layer 3" xmlns="http://www.w3.org/2000/svg" viewBox="0 0 981.93051 284.23669">
  <path d="M126.25121,166.13831l6.92505-161.35339c.10339-2.41003-1.82251-4.42041-4.2348-4.42041h-17.3576c-1.4187,0-2.74329.70978-3.52911,1.89099L.71666,163.60883c-1.87402,2.81714.14563,6.58636,3.52911,6.58636h23.03613c1.4187,0,2.74329-.70978,3.52911-1.89099l14.61658-21.97198c.78577-1.18121,2.11041-1.89099,3.52911-1.89099h45.11212c2.40637,0,4.33008,2.00092,4.23535,4.40546l-.66718,16.94305c-.09467,2.40454,1.82904,4.40546,4.23541,4.40546h20.14404c2.27026,0,4.13739-1.78876,4.23474-4.05688ZM98.98723,115.60413c-.09735,2.26819-1.96448,4.05688-4.23474,4.05688h-24.14484c-3.38354,0-5.4032-3.76923-3.52911-6.58636l25.80994-38.79822c.78577-1.18121,2.11041-1.89099,3.52911-1.89099,2.41229,0,4.3382,2.01038,4.2348,4.42041l-1.66516,38.79828Z" fill="#f02902" stroke-width="0"/>
  <path d="M775.07402,148.84668l-.66718,16.94305c-.09467,2.40454,1.82904,4.40546,4.23541,4.40546h20.14398c2.27026,0,4.13745-1.78876,4.2348-4.05688l6.92499-161.35339c.10345-2.41003-1.82251-4.42041-4.23474-4.42041h-17.3576c-1.4187,0-2.74335.70978-3.52911,1.89099l-107.33807,161.35333c-1.87408,2.81714.14557,6.58636,3.52911,6.58636h23.03607c1.4187,0,2.74335-.70978,3.52911-1.89099l14.61658-21.97198c.78577-1.18121,2.11041-1.89099,3.52911-1.89099h45.11212c2.40637,0,4.33008,2.00092,4.23541,4.40546ZM743.84831,113.07465l25.81-38.79822c.78577-1.18121,2.11041-1.89099,3.52911-1.89099,2.41229,0,4.3382,2.01038,4.23474,4.42041l-1.6651,38.79828c-.09735,2.26819-1.96454,4.05688-4.2348,4.05688h-24.14484c-3.38348,0-5.40314-3.76923-3.52911-6.58636Z" fill="#f02902" stroke-width="0"/>
  <path d="M357.97191.36444h-86.2121c-1.25647,0-2.37927.78455-2.8114,1.96436l-60.00537,163.84277c-.71552,1.95374.73071,4.02362,2.81134,4.02362h84.11871c.69525,0,1.3349-.38019,1.66724-.99084l11.41864-20.98401c.68823-1.26477-.22729-2.80536-1.66724-2.80536h-58.02161c-1.85132,0-3.13818-1.84174-2.50153-3.58014l25.04095-68.37354c.38446-1.0498,1.38354-1.74786,2.50153-1.74786h39.38147c.69525,0,1.3349-.38013,1.66724-.99084l11.41864-20.98401c.68823-1.26477-.22736-2.80536-1.66724-2.80536h-39.77338c-1.85132,0-3.13818-1.84174-2.50153-3.58014l6.0285-16.46057c.38446-1.0498,1.38354-1.74786,2.50153-1.74786h55.18695c.69531,0,1.33496-.38019,1.6673-.99091l11.41858-20.98395c.68829-1.26477-.22729-2.80536-1.66724-2.80536Z" fill="#f02902" stroke-width="0"/>
  <path d="M650.90666.3645h-22.922c-1.18036,0-2.23511.737-2.64105,1.84534l-60.13818,164.20551c-.67218,1.83539.68646,3.77985,2.64105,3.77985h22.92194c1.18036,0,2.23511-.737,2.64105-1.84534L653.54765,4.14435c.67218-1.83539-.68646-3.77985-2.64099-3.77985Z" fill="#f02902" stroke-width="0"/>
  <path d="M979.37364,145.05054h-57.07788c-1.77429,0-3.00763-1.76514-2.39746-3.43121L970.50792,3.43127c.61017-1.66608-.62317-3.43127-2.39746-3.43127h-23.47437c-1.07153,0-2.02899.66907-2.39752,1.67517l-60.32825,164.7243c-.61017,1.66608.62317,3.43127,2.39746,3.43127h84.36023c.93524,0,1.79559-.51135,2.24261-1.33282l10.70575-19.67377c.92578-1.70135-.30579-3.77362-2.24274-3.77362Z" fill="#f02902" stroke-width="0"/>
  <path d="M515.75487,68.51282c2.28705-3.35254,4.32385-6.8692,6.09381-10.5213l2.43085-5.01587c1.94226-4.00769,3.30206-8.27234,4.03815-12.66461.87329-5.21088.83649-10.53369-.10864-15.73206l-.1181-.64948c-.58307-3.20691-1.78809-6.26874-3.54712-9.01288-2.23804-3.49133-5.31006-6.37061-8.9389-8.37811l-2.97552-1.64606c-1.93463-1.07019-4.00275-1.87885-6.15021-2.40479-5.75891-1.41034-11.66644-2.12323-17.59552-2.12323h-44.45367c-1.26532,0-2.39606.79004-2.83118,1.97821l-59.98987,163.80054c-.72058,1.96747.7359,4.052,2.83124,4.052h22.49054c1.26538,0,2.39606-.7901,2.83124-1.97821l22.77667-62.19104c.43512-1.18817,1.56586-1.97821,2.83118-1.97821h6.83624c1.47632,0,2.73553,1.06903,2.9751,2.52582l10.04742,61.09583c.23956,1.45679,1.49878,2.52582,2.9751,2.52582h22.80133c1.86047,0,3.27704-1.66852,2.9751-3.50439l-10.50714-63.89172c-.1604-.97565.40076-1.92627,1.33252-2.25714,5.60107-1.9892,10.97046-4.57849,16.01447-7.72278l4.19012-2.612c2.99005-1.86395,5.755-4.06677,8.23981-6.56488,4.62396-4.6485,8.81-9.71307,12.50494-15.12939l.00006-.00006ZM500.71324,38.96375v.00006c-.31335,5.18982-1.46228,10.2951-3.40247,15.11884l-1.08118,2.68811c-.91864,2.28394-2.04449,4.479-3.36346,6.55768-3.76752,5.93738-9.00372,10.80182-15.20197,14.12274-1.81702.97351-3.84222,1.49402-5.9035,1.51727l-26.55023.29907c-1.39453,0-2.36383-1.38733-1.88428-2.69678l18.35205-50.10956c.28955-.79071,1.04211-1.31653,1.88422-1.31653h22.08929c1.66821,0,3.33173.17627,4.96289.52588,3.30737.70892,6.19995,2.69763,8.04614,5.5318,1.49841,2.30029,2.21796,5.02118,2.05249,7.76141Z" fill="#f02902" stroke-width="0"/>
  <path d="M348.0612,216.60101h-34.87469c-.19983,0-.37836.12482-.44708.31244l-24.12915,65.88379c-.11383.31073.11621.63989.44714.63989h10.36426c.19983,0,.37842-.12476.44714-.31238l13.96533-38.13226c.06873-.18762.24731-.31238.44714-.31238h16.05914c.1745,0,.33496-.0954.41833-.2486l4.78845-8.7998c.17273-.31726-.05701-.7038-.41821-.7038h-16.92725c-.33093,0-.56097-.32916-.44714-.63989l2.79163-7.62256c.06873-.18762.24725-.31238.44714-.31238h22.2793c.17444,0,.3349-.0954.41827-.24858l4.78845-8.79969c.17273-.31726-.05701-.7038-.41821-.7038Z" fill="#f02902" stroke-width="0"/>
  <path d="M420.51232,216.60101h-34.39526c-.2843,0-.53839.17749-.63623.44452l-23.98163,65.48114c-.16193.44208.16528.91046.63617.91046h9.93536c.2843,0,.53839-.17743.63623-.44446l13.86865-37.8681c.09778-.26703.35193-.44446.63623-.44446h15.79889c.24817,0,.47638-.13574.59503-.3537l4.56934-8.39722c.24567-.45142-.08112-1.00128-.59509-1.00128h-16.30029c-.47089,0-.7981-.46838-.63617-.9104l2.6441-7.21997c.09784-.26697.35193-.44446.63623-.44446h22.01904c.24817,0,.47638-.13568.59503-.3537l4.56946-8.39703c.24567-.45148-.08112-1.00134-.59509-1.00134Z" fill="#f02902" stroke-width="0"/>
  <path d="M496.90044,216.4795h-33.55042c-.43317,0-.82037.2705-.9693.67723l-23.72186,64.77161c-.2467.67365.25201,1.38727.96936,1.38727h33.14398c.37811,0,.72595-.20679.90674-.53888l4.18329-7.68756c.37427-.68787-.1236-1.5257-.9068-1.5257h-22.3772c-.71735,0-1.216-.71362-.9693-1.38727l9.86652-26.94043c.14899-.40674.53619-.67725.96936-.67725h15.34015c.37811,0,.72595-.20679.90674-.53888l4.18329-7.68744c.37427-.68787-.1236-1.5257-.9068-1.5257h-15.19562c-.71735,0-1.21606-.71368-.96936-1.38727l2.38434-6.51038c.14899-.40674.53613-.67725.9693-.67725h21.5603c.37811,0,.72595-.20679.90674-.53888l4.18329-7.68756c.37427-.68787-.1236-1.52568-.90674-1.52568Z" fill="#f02902" stroke-width="0"/>
  <path d="M570.5728,216.60101h-33.604c-.42377,0-.80249.26459-.94812.66254l-23.73834,64.81659c-.24133.65887.2464,1.35699.94818,1.35699h33.18958c.36987,0,.71008-.20215.8869-.52704l4.20776-7.73267c.36621-.67285-.12085-1.49243-.8869-1.49243h-22.44733c-.70172,0-1.18945-.69812-.94812-1.35699l9.88306-26.98541c.14563-.39795.52429-.66248.94812-.66248h15.36926c.36987,0,.71008-.20221.8869-.5271l4.20776-7.73267c.36621-.67285-.12085-1.49243-.8869-1.49243h-15.26575c-.70178,0-1.18951-.69812-.94818-1.35699l2.40082-6.55536c.14569-.39795.52435-.66248.94812-.66248h21.58942c.36987,0,.71014-.20221.8869-.5271l4.20776-7.73254c.36621-.67285-.12085-1.49243-.8869-1.49243Z" fill="#f02902" stroke-width="0"/>
  <path d="M245.06078,215.80176c-15.74902,0-34.10425,15.2265-40.9162,33.94415-3.84332,10.55762-3.39581,20.3999,1.22778,27.0025,3.38098,4.82819,8.8371,7.48828,15.36237,7.48828,15.74902,0,34.10425-15.2265,40.91699-33.94409,3.84332-10.55768,3.39581-20.3999-1.22778-27.00256-3.38098-4.82819-8.8371-7.48828-15.36316-7.48828ZM248.98143,249.74591c-5.45459,14.98596-17.19312,27.17902-26.16766,27.17902-2.69214,0-4.83209-1.1059-6.35974-3.28802-3.30206-4.71576-3.16382-13.66138.36005-23.3443,5.45532-14.98596,17.19391-27.17902,26.16766-27.17902,2.69214,0,4.83209,1.1059,6.35974,3.28802,3.30206,4.7157,3.16382,13.66138-.36005,23.3443Z" fill="#f02902" stroke-width="0"/>
  <path d="M791.76164,215.80176c-15.74823,0-34.10498,15.2265-40.91693,33.94415-3.84259,10.5592-3.39581,20.40143,1.22772,27.0025,3.38177,4.82977,8.8363,7.48828,15.36243,7.48828,15.74823,0,34.10498-15.2265,40.91693-33.94409,3.84412-10.55768,3.39581-20.3999-1.2262-27.00256-3.38177-4.82819-8.83789-7.48828-15.36395-7.48828ZM795.6823,249.74591c-5.45453,14.98596-17.19312,27.17902-26.1684,27.17902-2.69135,0-4.8313-1.1059-6.35901-3.28802-3.30206-4.71576-3.16461-13.66138.35931-23.3443,5.45612-14.98596,17.19464-27.17902,26.1684-27.17902,2.69135,0,4.8313,1.1059,6.35895,3.28802,3.30212,4.7157,3.16467,13.66138-.35925,23.3443Z" fill="#f02902" stroke-width="0"/>
  <path d="M159.84044,215.67993c-15.74982,0-34.10504,15.2265-40.91699,33.94415-3.84332,10.55762-3.39581,20.39984,1.22778,27.0025,3.38098,4.82819,8.8371,7.48828,15.36237,7.48828,8.62469,0,18.35992-4.57043,26.71045-12.53827.42725-.40771.56079-1.02783.33972-1.57922-.22253-.55603-.75128-.91534-1.34644-.91534h-8.91205c-.37646,0-.74512.15308-1.00909.41711-4.75867,4.70941-9.62433,7.30396-13.70276,7.30396-2.69214,0-4.83209-1.1059-6.35974-3.28802-3.30206-4.71576-3.16461-13.66138.35925-23.3443,5.45538-14.98596,17.19391-27.17908,26.16766-27.17908,3.89642,0,6.74084,2.45392,8.00922,6.91193.17731.62012.74506,1.0528,1.38007,1.0528h9.41425c.45453,0,.88953-.21869,1.16449-.58417.27643-.36865.36157-.83099.23352-1.26996-2.49298-8.53015-9.09796-13.42236-18.1217-13.42236Z" fill="#f02902" stroke-width="0"/>
  <path d="M697.63316,215.80176c-15.74982,0-34.10657,15.2265-40.91699,33.94415-3.84412,10.55762-3.39581,20.3999,1.2262,27.0025,3.38177,4.82819,8.83789,7.48828,15.36395,7.48828,8.61609,0,18.3443-4.56421,26.68701-12.51953.43268-.40924.5686-1.03406.34521-1.59009-.22339-.56238-.75604-.92474-1.35742-.92474h-8.87848c-.3764,0-.74664.15308-1.01843.42175-4.75476,4.70789-9.62042,7.30084-13.69885,7.30084-2.69135,0-4.8313-1.1059-6.35895-3.28802-3.30206-4.71576-3.16461-13.66138.35925-23.3443,5.45459-14.98596,17.19312-27.17902,26.16687-27.17902,3.8941,0,6.73694,2.45074,8.0069,6.90405.18115.62482.75287,1.06061,1.39172,1.06061h9.39081c.45929,0,.89819-.22021,1.17468-.59039.27802-.37177.36237-.83881.23273-1.27777-2.49457-8.52075-9.09875-13.40833-18.11621-13.40833Z" fill="#f02902" stroke-width="0"/>
  <path d="M843.14122,270.68732c-2.95013,0-6.38062,2.85413-7.66205,6.37488s.07135,6.37488,3.02155,6.37488,6.38049-2.85413,7.66193-6.37488c1.28149-3.52075-.07135-6.37488-3.02142-6.37488Z" fill="#f02902" stroke-width="0"/>
</svg>